<svg width="30" height="30" viewBox="0 0 30 30" fill="none" xmlns="http://www.w3.org/2000/svg">
<path fill-rule="evenodd" clip-rule="evenodd" d="M11.5 2.16667H3.33333C2.689 2.16667 2.16667 2.689 2.16667 3.33333V11.5C2.16667 12.1443 2.689 12.6667 3.33333 12.6667H11.5C12.1443 12.6667 12.6667 12.1443 12.6667 11.5V3.33333C12.6667 2.689 12.1443 2.16667 11.5 2.16667ZM3.33333 1C2.04467 1 1 2.04467 1 3.33333V11.5C1 12.7887 2.04467 13.8333 3.33333 13.8333H11.5C12.7887 13.8333 13.8333 12.7887 13.8333 11.5V3.33333C13.8333 2.04467 12.7887 1 11.5 1H3.33333Z" fill="white" stroke="white"/>
<path fill-rule="evenodd" clip-rule="evenodd" d="M26.6666 17.3334H18.5C17.8556 17.3334 17.3333 17.8557 17.3333 18.5001V26.6667C17.3333 27.3111 17.8556 27.8334 18.5 27.8334H26.6666C27.311 27.8334 27.8333 27.3111 27.8333 26.6667V18.5001C27.8333 17.8557 27.311 17.3334 26.6666 17.3334ZM18.5 16.1667C17.2113 16.1667 16.1666 17.2114 16.1666 18.5001V26.6667C16.1666 27.9554 17.2113 29.0001 18.5 29.0001H26.6666C27.9553 29.0001 29 27.9554 29 26.6667V18.5001C29 17.2114 27.9553 16.1667 26.6666 16.1667H18.5Z" fill="white" stroke="white"/>
<path fill-rule="evenodd" clip-rule="evenodd" d="M11.5 17.3334H3.33333C2.689 17.3334 2.16667 17.8557 2.16667 18.5001V26.6667C2.16667 27.3111 2.689 27.8334 3.33333 27.8334H11.5C12.1443 27.8334 12.6667 27.3111 12.6667 26.6667V18.5001C12.6667 17.8557 12.1443 17.3334 11.5 17.3334ZM3.33333 16.1667C2.04467 16.1667 1 17.2114 1 18.5001V26.6667C1 27.9554 2.04467 29.0001 3.33333 29.0001H11.5C12.7887 29.0001 13.8333 27.9554 13.8333 26.6667V18.5001C13.8333 17.2114 12.7887 16.1667 11.5 16.1667H3.33333Z" fill="white" stroke="white"/>
<path fill-rule="evenodd" clip-rule="evenodd" d="M26.6667 2.16667H18.5C17.8557 2.16667 17.3334 2.689 17.3334 3.33333V11.5C17.3334 12.1443 17.8557 12.6667 18.5 12.6667H26.6667C27.311 12.6667 27.8334 12.1443 27.8334 11.5V3.33333C27.8334 2.689 27.311 2.16667 26.6667 2.16667ZM18.5 1C17.2114 1 16.1667 2.04467 16.1667 3.33333V11.5C16.1667 12.7887 17.2114 13.8333 18.5 13.8333H26.6667C27.9554 13.8333 29 12.7887 29 11.5V3.33333C29 2.04467 27.9554 1 26.6667 1H18.5Z" fill="white" stroke="white"/>
</svg>
