<svg width="28" height="32" viewBox="0 0 28 32" fill="none" xmlns="http://www.w3.org/2000/svg">
<path fill-rule="evenodd" clip-rule="evenodd" d="M14 13.7258C17.3095 13.7258 19.9091 11.1018 19.9091 7.96775C19.9091 4.83372 17.3095 2.20968 14 2.20968C10.6906 2.20968 8.09094 4.83372 8.09094 7.96775C8.09094 11.1018 10.6906 13.7258 14 13.7258ZM14 14.9355C17.9162 14.9355 21.0909 11.8159 21.0909 7.96775C21.0909 4.11957 17.9162 1 14 1C10.0838 1 6.90912 4.11957 6.90912 7.96775C6.90912 11.8159 10.0838 14.9355 14 14.9355Z" fill="white" stroke="white"/>
<path fill-rule="evenodd" clip-rule="evenodd" d="M16.3029 18.2741H11.6971C6.44197 18.2741 2.18182 22.6347 2.18182 28.0138C2.18182 28.9949 2.95887 29.7903 3.9174 29.7903H24.0826C25.0411 29.7903 25.8182 28.9949 25.8182 28.0138C25.8182 22.6347 21.558 18.2741 16.3029 18.2741ZM11.6971 17.0645C5.78927 17.0645 1 21.9666 1 28.0138C1 29.663 2.30617 30.9999 3.9174 30.9999H24.0826C25.6938 30.9999 27 29.663 27 28.0138C27 21.9666 22.2107 17.0645 16.3029 17.0645H11.6971Z" fill="white" stroke="white"/>
</svg>
